<?xml version="1.0" standalone="no"?>
<!DOCTYPE svg PUBLIC "-//W3C//DTD SVG 20010904//EN"
 "http://www.w3.org/TR/2001/REC-SVG-20010904/DTD/svg10.dtd">
<svg version="1.0" xmlns="http://www.w3.org/2000/svg"
 width="500.000000pt" height="500.000000pt" viewBox="0 0 500.000000 500.000000"
 preserveAspectRatio="xMidYMid meet">
<metadata>
Created by potrace 1.14, written by Peter Selinger 2001-2017
</metadata>
<g transform="translate(0.000000,500.000000) scale(0.100000,-0.100000)"
fill="#000000" stroke="none">
<path d="M3689 3798 c-85 -89 -174 -182 -199 -208 -25 -26 -119 -125 -210
-220 -259 -273 -358 -377 -456 -480 -51 -52 -111 -115 -134 -140 -23 -25 -77
-81 -119 -125 -42 -44 -160 -168 -262 -275 -246 -257 -244 -255 -233 -288 13
-37 58 -47 87 -19 12 12 119 132 237 267 117 135 232 265 254 290 36 39 114
128 173 196 59 68 140 160 153 174 8 8 28 31 44 50 15 19 47 55 70 80 22 25
70 79 106 120 35 41 67 77 70 80 3 3 52 58 108 123 57 65 116 133 131 150 16
18 66 75 111 127 129 148 150 172 194 218 22 23 37 42 34 42 -3 0 -75 -73
-159 -162z"/>
<path d="M2522 3443 c-137 -142 -272 -281 -298 -309 -27 -28 -128 -134 -224
-235 -265 -278 -325 -341 -360 -379 -50 -54 -241 -259 -280 -300 -169 -179
-197 -214 -238 -295 -45 -90 -63 -159 -69 -270 -5 -82 -2 -115 16 -185 75
-298 330 -501 630 -502 118 0 175 11 276 55 111 47 182 109 355 306 36 40 76
85 90 100 14 14 56 62 95 106 38 44 74 85 80 91 66 73 169 187 196 219 19 22
37 42 40 45 3 3 43 48 89 100 47 52 87 97 90 100 3 3 71 79 150 170 79 91 147
167 150 170 3 3 38 43 79 90 40 47 100 114 131 150 32 36 108 124 170 195 62
72 126 146 143 165 80 92 72 87 -53 -40 -122 -124 -395 -407 -515 -535 -26
-27 -113 -120 -194 -205 -81 -85 -179 -188 -217 -229 -38 -40 -87 -92 -109
-115 -22 -24 -89 -96 -150 -160 -60 -65 -126 -135 -145 -156 -19 -20 -89 -95
-155 -166 -186 -200 -238 -248 -312 -287 -102 -53 -179 -70 -293 -64 -113 6
-174 24 -258 74 -260 158 -352 471 -216 739 28 54 73 114 153 199 40 44 387
434 596 670 38 44 86 98 106 120 20 22 50 56 65 75 16 19 31 37 34 40 3 3 82
93 174 200 93 107 183 211 200 231 85 97 237 279 233 279 -2 0 -117 -116 -255
-257z"/>
<path d="M2769 3243 c-13 -16 -12 -17 4 -4 9 7 17 15 17 17 0 8 -8 3 -21 -13z"/>
<path d="M2620 3090 c-69 -71 -280 -286 -470 -479 -190 -193 -349 -362 -354
-376 -11 -29 15 -65 47 -65 26 0 17 -10 572 645 103 121 189 222 214 250 170
194 166 205 -9 25z"/>
<path d="M3539 3181 c-2 -5 -107 -116 -234 -247 -126 -131 -248 -256 -270
-279 -73 -76 -498 -516 -627 -649 -172 -178 -172 -179 -156 -213 8 -18 22 -29
39 -31 27 -3 48 17 159 148 30 36 60 70 65 76 6 6 35 39 65 74 30 35 60 68 65
74 6 6 49 56 96 111 47 55 193 224 324 375 131 151 261 302 289 334 28 33 84
97 125 143 41 46 71 86 68 89 -3 3 -7 1 -8 -5z"/>
<path d="M1635 2145 c-236 -59 -382 -192 -431 -396 -4 -13 -8 -60 -10 -104 -7
-151 40 -271 150 -381 85 -84 169 -129 278 -148 323 -56 611 187 609 514 -1
283 -219 505 -506 514 -44 2 -84 2 -90 1z m174 -116 c194 -44 327 -222 317
-423 -7 -128 -69 -241 -173 -316 -73 -52 -140 -73 -238 -74 -414 -5 -575 529
-227 759 89 58 212 79 321 54z"/>
</g>
</svg>
